<svg width="659" height="160" viewBox="0 0 659 160" fill="none" xmlns="http://www.w3.org/2000/svg">
<path d="M297.083 37.8615L262.46 135.515H237.141L202.518 37.8615H226.95L249.294 110.402H250.307L272.714 37.8615H297.083Z" fill="black"/>
<path d="M347.327 137.422C337.579 137.422 329.16 135.388 322.071 131.319C315.024 127.208 309.602 121.401 305.804 113.899C302.006 106.355 300.107 97.4751 300.107 87.2605C300.107 77.2154 302.006 68.3994 305.804 60.8126C309.644 53.1834 315.003 47.2496 321.881 43.0112C328.759 38.7304 336.84 36.59 346.124 36.59C352.116 36.59 357.771 37.5648 363.088 39.5145C368.447 41.4218 373.173 44.3887 377.266 48.4152C381.401 52.4417 384.651 57.5702 387.014 63.8007C389.377 69.9889 390.558 77.3637 390.558 85.9254V92.9824H310.867V77.4697H368.594C368.552 73.0617 367.603 69.1412 365.746 65.708C363.889 62.2325 361.294 59.4987 357.96 57.5067C354.669 55.5146 350.829 54.5186 346.44 54.5186C341.756 54.5186 337.642 55.6629 334.097 57.9517C330.553 60.1981 327.789 63.165 325.806 66.8524C323.864 70.4975 322.873 74.5028 322.831 78.8684V92.4102C322.831 98.0897 323.864 102.964 325.932 107.033C328 111.059 330.89 114.153 334.604 116.315C338.317 118.434 342.664 119.494 347.643 119.494C350.977 119.494 353.994 119.028 356.695 118.095C359.395 117.12 361.737 115.7 363.72 113.835C365.704 111.971 367.202 109.661 368.215 106.906L389.609 109.322C388.259 115.001 385.685 119.96 381.887 124.198C378.131 128.395 373.321 131.658 367.455 133.989C361.589 136.278 354.88 137.422 347.327 137.422Z" fill="black"/>
<path d="M427.509 78.2962V135.515H404.596V37.8615H426.497V54.455H427.636C429.872 48.9874 433.438 44.643 438.333 41.4218C443.27 38.2006 449.368 36.59 456.626 36.59C463.335 36.59 469.18 38.031 474.159 40.9132C479.181 43.7953 483.063 47.9702 485.806 53.4378C488.591 58.9053 489.962 65.5385 489.92 73.3372V135.515H467.007V76.8975C467.007 70.3703 465.319 65.263 461.943 61.5755C458.609 57.8881 453.989 56.0444 448.081 56.0444C444.072 56.0444 440.506 56.9345 437.384 58.7146C434.303 60.4524 431.877 62.9742 430.104 66.2802C428.374 69.5862 427.509 73.5915 427.509 78.2962Z" fill="black"/>
<path d="M556.415 37.8615V55.6629H500.524V37.8615H556.415ZM514.322 14.4653H537.236V106.143C537.236 109.237 537.7 111.61 538.628 113.263C539.599 114.874 540.865 115.976 542.426 116.569C543.988 117.163 545.718 117.459 547.617 117.459C549.051 117.459 550.359 117.353 551.541 117.141C552.765 116.93 553.693 116.739 554.326 116.569L558.187 134.561C556.963 134.985 555.212 135.452 552.934 135.96C550.697 136.469 547.954 136.765 544.705 136.85C538.966 137.02 533.797 136.151 529.197 134.244C524.598 132.294 520.947 129.285 518.247 125.216C515.588 121.147 514.28 116.061 514.322 109.957V14.4653Z" fill="black"/>
<path d="M611.595 137.422C602.101 137.422 593.872 135.324 586.91 131.128C579.947 126.932 574.545 121.062 570.705 113.518C566.908 105.973 565.009 97.1572 565.009 87.0698C565.009 76.9823 566.908 68.1451 570.705 60.5583C574.545 52.9715 579.947 47.0801 586.91 42.8841C593.872 38.688 602.101 36.59 611.595 36.59C621.09 36.59 629.318 38.688 636.281 42.8841C643.244 47.0801 648.624 52.9715 652.422 60.5583C656.262 68.1451 658.182 76.9823 658.182 87.0698C658.182 97.1572 656.262 105.973 652.422 113.518C648.624 121.062 643.244 126.932 636.281 131.128C629.318 135.324 621.09 137.422 611.595 137.422ZM611.722 118.985C616.87 118.985 621.174 117.565 624.635 114.726C628.095 111.843 630.669 107.986 632.357 103.155C634.087 98.3228 634.952 92.94 634.952 87.0062C634.952 81.03 634.087 75.626 632.357 70.7942C630.669 65.92 628.095 62.0418 624.635 59.1596C621.174 56.2775 616.87 54.8364 611.722 54.8364C606.447 54.8364 602.059 56.2775 598.556 59.1596C595.096 62.0418 592.501 65.92 590.771 70.7942C589.083 75.626 588.239 81.03 588.239 87.0062C588.239 92.94 589.083 98.3228 590.771 103.155C592.501 107.986 595.096 111.843 598.556 114.726C602.059 117.565 606.447 118.985 611.722 118.985Z" fill="black"/>
<path d="M86.778 105.675V78.5144L108.459 66.0655L101.954 53.6167L80.2738 66.6314L58.0511 53.6167L51.5469 66.0655L73.2275 78.5144V105.675H86.778Z" fill="black"/>
<path d="M160 0V160H0V0H160ZM14.5455 145.455H145.455V14.5455H14.5455V145.455Z" fill="black"/>
</svg>
